<svg width="20" height="20" viewBox="0 0 20 20" fill="none" xmlns="http://www.w3.org/2000/svg">
<path d="M13.9999 4.99998C13.9999 4.4477 14.4477 3.99998 14.9999 3.99998C15.5522 3.99998 15.9999 4.4477 15.9999 4.99998C15.9999 5.55227 15.5522 5.99998 14.9999 5.99998C14.4477 5.99998 13.9999 5.55227 13.9999 4.99998Z" fill="#EDEDF5"/>
<path fill-rule="evenodd" clip-rule="evenodd" d="M9.99994 5.24998C7.37659 5.24998 5.24994 7.37663 5.24994 9.99998C5.24994 12.6233 7.37659 14.75 9.99994 14.75C12.6233 14.75 14.7499 12.6233 14.7499 9.99998C14.7499 7.37663 12.6233 5.24998 9.99994 5.24998ZM6.74994 9.99998C6.74994 8.20506 8.20501 6.74998 9.99994 6.74998C11.7949 6.74998 13.2499 8.20506 13.2499 9.99998C13.2499 11.7949 11.7949 13.25 9.99994 13.25C8.20501 13.25 6.74994 11.7949 6.74994 9.99998Z" fill="#EDEDF5"/>
<path fill-rule="evenodd" clip-rule="evenodd" d="M15.2582 0.833C11.7916 0.445559 8.20828 0.445559 4.74171 0.833C2.72965 1.05788 1.10532 2.64289 0.868765 4.66542C0.454227 8.20971 0.454227 11.7903 0.868765 15.3346C1.10532 17.3571 2.72965 18.9421 4.74171 19.167C8.20828 19.5544 11.7916 19.5544 15.2582 19.167C17.2702 18.9421 18.8946 17.3571 19.1311 15.3346C19.5457 11.7903 19.5457 8.20971 19.1311 4.66542C18.8946 2.64289 17.2703 1.05788 15.2582 0.833ZM4.90832 2.32372C8.26416 1.94865 11.7357 1.94865 15.0916 2.32372C16.4217 2.47238 17.4872 3.52199 17.6413 4.83967C18.0423 8.26819 18.0423 11.7318 17.6413 15.1603C17.4872 16.478 16.4217 17.5276 15.0916 17.6762C11.7357 18.0513 8.26417 18.0513 4.90832 17.6762C3.57821 17.5276 2.51272 16.478 2.35861 15.1603C1.95761 11.7318 1.95761 8.26819 2.35861 4.83967C2.51272 3.52199 3.57821 2.47238 4.90832 2.32372Z" fill="#EDEDF5"/>
</svg>
