<svg width="35" height="35" viewBox="0 0 35 35" fill="none" xmlns="http://www.w3.org/2000/svg">
<path fill-rule="evenodd" clip-rule="evenodd" d="M17.5 3C9.49187 3 3 9.49187 3 17.5C3 25.5081 9.49187 32 17.5 32C25.5081 32 32 25.5081 32 17.5C32 9.49187 25.5081 3 17.5 3ZM0 17.5C0 7.83502 7.83502 0 17.5 0C27.165 0 35 7.83502 35 17.5C35 27.165 27.165 35 17.5 35C7.83502 35 0 27.165 0 17.5Z" fill="#EDEDF5"/>
<path fill-rule="evenodd" clip-rule="evenodd" d="M15.1996 12.1175C13.3324 13.6536 12.0851 15.8141 11.6883 18.1991L10.8125 23.4648C10.3576 26.1992 13.5371 28.0349 15.6778 26.2738L19.8 22.8824C21.6672 21.3463 22.9146 19.1858 23.3113 16.8008L24.1871 11.5351C24.642 8.80069 21.4625 6.96502 19.3218 8.72614L15.1996 12.1175ZM17.5 14.5C15.8431 14.5 14.5 15.8431 14.5 17.5C14.5 19.1569 15.8431 20.5 17.5 20.5C19.1569 20.5 20.5 19.1569 20.5 17.5C20.5 15.8431 19.1569 14.5 17.5 14.5Z" fill="#EDEDF5"/>
</svg>
