<svg width="25" height="22" viewBox="0 0 25 22" fill="none" xmlns="http://www.w3.org/2000/svg">
<path d="M1.78571 0.0371094H10.7143C11.1879 0.0371094 11.6421 0.261662 11.977 0.661367C12.3119 1.06107 12.5 1.60319 12.5 2.16846C12.5 2.73373 12.3119 3.27584 11.977 3.67555C11.6421 4.07525 11.1879 4.2998 10.7143 4.2998H1.78571C1.31211 4.2998 0.85791 4.07525 0.523024 3.67555C0.188138 3.27584 0 2.73373 0 2.16846C0 1.60319 0.188138 1.06107 0.523024 0.661367C0.85791 0.261662 1.31211 0.0371094 1.78571 0.0371094ZM14.2857 17.0879H23.2143C23.6879 17.0879 24.1421 17.3124 24.477 17.7121C24.8119 18.1119 25 18.654 25 19.2192C25 19.7845 24.8119 20.3266 24.477 20.7263C24.1421 21.126 23.6879 21.3506 23.2143 21.3506H14.2857C13.8121 21.3506 13.3579 21.126 13.023 20.7263C12.6881 20.3266 12.5 19.7845 12.5 19.2192C12.5 18.654 12.6881 18.1119 13.023 17.7121C13.3579 17.3124 13.8121 17.0879 14.2857 17.0879ZM1.78571 8.5625H23.2143C23.6879 8.5625 24.1421 8.78705 24.477 9.18676C24.8119 9.58646 25 10.1286 25 10.6938C25 11.2591 24.8119 11.8012 24.477 12.2009C24.1421 12.6006 23.6879 12.8252 23.2143 12.8252H1.78571C1.31211 12.8252 0.85791 12.6006 0.523024 12.2009C0.188138 11.8012 0 11.2591 0 10.6938C0 10.1286 0.188138 9.58646 0.523024 9.18676C0.85791 8.78705 1.31211 8.5625 1.78571 8.5625Z" fill="#EDEDF5"/>
</svg>
