<svg width="35" height="35" viewBox="0 0 35 35" fill="none" xmlns="http://www.w3.org/2000/svg">
<path d="M17.5 9.1C17.1286 9.1 16.7726 9.2475 16.51 9.51005C16.2474 9.7726 16.1 10.1287 16.1 10.5V13.3C16.1 13.6713 16.2474 14.0274 16.51 14.2899C16.7726 14.5525 17.1286 14.7 17.5 14.7C17.8713 14.7 18.2273 14.5525 18.4899 14.2899C18.7524 14.0274 18.9 13.6713 18.9 13.3V10.5C18.9 10.1287 18.7524 9.7726 18.4899 9.51005C18.2273 9.2475 17.8713 9.1 17.5 9.1ZM17.5 3.5C14.9008 3.5 12.4082 4.5325 10.5703 6.37035C8.73245 8.20821 7.69995 10.7009 7.69995 13.3V21.7C7.69995 24.2991 8.73245 26.7918 10.5703 28.6296C12.4082 30.4675 14.9008 31.5 17.5 31.5C20.0991 31.5 22.5917 30.4675 24.4296 28.6296C26.2675 26.7918 27.2999 24.2991 27.2999 21.7V13.3C27.2999 10.7009 26.2675 8.20821 24.4296 6.37035C22.5917 4.5325 20.0991 3.5 17.5 3.5ZM24.5 21.7C24.5 23.5565 23.7625 25.337 22.4497 26.6497C21.1369 27.9625 19.3565 28.7 17.5 28.7C15.6434 28.7 13.863 27.9625 12.5502 26.6497C11.2374 25.337 10.5 23.5565 10.5 21.7V13.3C10.5 11.4435 11.2374 9.66301 12.5502 8.35025C13.863 7.0375 15.6434 6.3 17.5 6.3C19.3565 6.3 21.1369 7.0375 22.4497 8.35025C23.7625 9.66301 24.5 11.4435 24.5 13.3V21.7Z" fill="#EDEDF5"/>
</svg>
