<svg width="22" height="19" viewBox="0 0 22 19" fill="none" xmlns="http://www.w3.org/2000/svg">
<path fill-rule="evenodd" clip-rule="evenodd" d="M14.0215 0.343462C14.5299 0.25638 15.0992 0.227304 15.635 0.317946C16.5918 0.479829 17.4757 0.924557 18.1744 1.59132C18.6311 1.60165 19.0799 1.51167 19.477 1.38341C19.8131 1.27486 20.097 1.14379 20.296 1.04015C20.3949 0.98862 20.4713 0.944662 20.521 0.914902C20.5458 0.900046 20.5638 0.888801 20.5745 0.88201L20.5841 0.875949C20.8809 0.678221 21.2761 0.716704 21.529 0.96821C21.7819 1.21977 21.8226 1.61469 21.6264 1.9126C21.4187 2.22789 21.1303 2.78996 20.8073 3.41972C20.7565 3.51874 20.7048 3.61943 20.6525 3.7211C20.4672 4.08107 20.2772 4.44488 20.1001 4.75701C19.9889 4.953 19.87 5.15197 19.7501 5.32392V5.59769C19.7577 6.60332 19.6424 7.6037 19.4083 8.57692C19.261 9.18927 19.0667 9.79086 18.8265 10.3762C18.2041 11.8929 17.2857 13.2703 16.1249 14.4281C14.9642 15.5858 13.5844 16.5007 12.0662 17.1192C10.5492 17.7372 8.9245 18.047 7.28665 18.0306C4.91234 18.0326 2.58798 17.3486 0.593255 16.0607C0.299454 15.871 0.175755 15.5034 0.295092 15.1747C0.414428 14.8459 0.745121 14.6433 1.09219 14.6863C1.39255 14.7234 1.69496 14.7416 1.99762 14.7406C3.08507 14.7375 4.15181 14.4973 5.12567 14.0446C4.81612 13.9037 4.52058 13.73 4.24443 13.5252C3.43271 12.9233 2.8288 12.0833 2.51673 11.1222C2.43564 10.8724 2.49108 10.5985 2.66289 10.3999C2.66597 10.3963 2.66908 10.3928 2.67221 10.3893C2.48869 10.2257 2.31696 10.0475 2.15886 9.85584C1.44754 8.99364 1.05587 7.9122 1.05009 6.79447L1.05007 6.79059L1.05008 6.74059C1.05008 6.47472 1.19083 6.22873 1.42003 6.09401C1.47813 6.05986 1.53972 6.03415 1.60307 6.01691C1.26473 5.34183 1.08879 4.59638 1.09007 3.84012C1.08968 2.98336 1.31347 2.14139 1.73923 1.39789C1.86214 1.18325 2.08297 1.04301 2.3295 1.02304C2.57603 1.00306 2.81656 1.10591 2.97242 1.29796C3.93498 2.48397 5.13626 3.45423 6.49825 4.1457C7.19839 4.50115 7.93294 4.77885 8.68874 4.97528C9.11247 5.08541 9.54288 5.17 9.97765 5.22843C9.9585 4.50517 10.1013 3.7823 10.4011 3.11437C10.8407 2.13454 11.5932 1.32837 12.5404 0.822273C12.9416 0.607944 13.4741 0.437233 14.0215 0.343462ZM2.74335 7.89096C2.873 8.25584 3.06586 8.59817 3.31592 8.90126C3.80724 9.49681 4.48919 9.90437 5.24641 10.055C5.58369 10.1221 5.83213 10.41 5.84916 10.7535C5.86618 11.0969 5.64743 11.408 5.31843 11.5081C5.04594 11.591 4.76676 11.6488 4.48441 11.6809C4.67099 11.9214 4.89047 12.1368 5.13787 12.3203C5.69906 12.7364 6.376 12.9673 7.07451 12.9807C7.39143 12.9868 7.6703 13.1915 7.77112 13.492C7.87195 13.7925 7.77296 14.124 7.52386 14.32C6.47469 15.1455 5.26149 15.7212 3.97594 16.0151C5.04142 16.3563 6.15887 16.532 7.28916 16.5306L7.29786 16.5306C8.73792 16.5455 10.1665 16.2734 11.5002 15.7301C12.8339 15.1867 14.046 14.3831 15.0656 13.3661C16.0853 12.3491 16.892 11.1391 17.4388 9.80675C17.6498 9.29252 17.8205 8.76406 17.9499 8.22615C18.1557 7.37038 18.257 6.49072 18.2501 5.60645L18.2501 5.60059V5.07059C18.2501 4.88873 18.3161 4.71307 18.436 4.5763C18.5053 4.49726 18.6264 4.3147 18.7955 4.0168C18.9561 3.73368 19.1339 3.39377 19.3188 3.03459C19.33 3.01286 19.3412 2.99103 19.3525 2.96909C18.8729 3.07324 18.3293 3.12783 17.7595 3.06624C17.579 3.04674 17.4118 2.96245 17.2887 2.82901C16.7858 2.28368 16.1162 1.92067 15.3848 1.79693C15.0602 1.74202 14.6679 1.75459 14.2748 1.82193C13.8477 1.89509 13.476 2.0231 13.2473 2.14528C12.593 2.49485 12.0733 3.05169 11.7696 3.72848C11.4659 4.40526 11.3954 5.16371 11.5692 5.88487C11.6246 6.11478 11.5683 6.35736 11.4174 6.53939C11.2664 6.72142 11.0384 6.82158 10.8022 6.80963C9.95877 6.76697 9.12429 6.63832 8.31142 6.42705C7.45152 6.20356 6.61579 5.88761 5.81921 5.4832C4.64643 4.88779 3.57838 4.11069 2.65354 3.183C2.61135 3.39861 2.58993 3.61864 2.59008 3.84009L2.59007 3.84201C2.58903 4.39273 2.72418 4.93516 2.98349 5.42101C3.2428 5.90686 3.61822 6.32105 4.07633 6.6267C4.35436 6.8122 4.47608 7.15928 4.37483 7.4778C4.27358 7.79632 3.97378 8.0094 3.63968 8.00031C3.33708 7.99208 3.03702 7.95527 2.74335 7.89096Z" fill="#EDEDF5"/>
</svg>
