<svg width="22" height="16" viewBox="0 0 22 16" fill="none" xmlns="http://www.w3.org/2000/svg">
<path fill-rule="evenodd" clip-rule="evenodd" d="M9.38599 4.35688C9.1543 4.21786 8.86573 4.21422 8.6306 4.34735C8.39547 4.48048 8.25012 4.7298 8.25012 5V11C8.25012 11.2702 8.39547 11.5195 8.6306 11.6526C8.86573 11.7858 9.1543 11.7821 9.38599 11.6431L14.386 8.64312C14.6119 8.50758 14.7501 8.26345 14.7501 8C14.7501 7.73655 14.6119 7.49242 14.386 7.35688L9.38599 4.35688ZM12.5424 8L9.75012 9.67536V6.32464L12.5424 8Z" fill="#EDEDF5"/>
<path fill-rule="evenodd" clip-rule="evenodd" d="M16.0308 0.641281C12.6821 0.379298 9.31816 0.379298 5.96951 0.641281L3.72881 0.816583C2.36624 0.923183 1.25155 1.94439 1.02632 3.29243C0.505551 6.40921 0.505551 9.59079 1.02632 12.7076C1.25155 14.0556 2.36624 15.0768 3.72881 15.1834L5.96951 15.3587C9.31815 15.6207 12.6821 15.6207 16.0308 15.3587L18.2715 15.1834C19.6341 15.0768 20.7488 14.0556 20.974 12.7076C21.4948 9.59079 21.4948 6.40921 20.974 3.29243C20.7488 1.94439 19.6341 0.923183 18.2715 0.816583L16.0308 0.641281ZM6.0865 2.13671C9.35728 1.88082 12.643 1.88082 15.9138 2.13671L18.1545 2.31201C18.8301 2.36487 19.3828 2.87122 19.4945 3.53963C19.9879 6.49274 19.9879 9.50726 19.4945 12.4604C19.3828 13.1288 18.8301 13.6351 18.1545 13.688L15.9138 13.8633C12.643 14.1192 9.35727 14.1192 6.0865 13.8633L3.8458 13.688C3.17019 13.6351 2.61749 13.1288 2.50581 12.4604C2.01239 9.50726 2.01239 6.49274 2.50581 3.53963C2.61749 2.87122 3.17019 2.36487 3.8458 2.31201L6.0865 2.13671Z" fill="#EDEDF5"/>
</svg>
